<svg width="20" height="20" viewBox="0 0 25 25" fill="none" xmlns="http://www.w3.org/2000/svg">
<path d="M2.85645 13.2812H16.3818C16.6097 13.2812 16.7969 13.2039 16.9434 13.0493C17.0898 12.8947 17.1631 12.7075 17.1631 12.4878C17.1631 12.2681 17.0898 12.085 16.9434 11.9385C16.7969 11.792 16.6097 11.7188 16.3818 11.7188H2.90527L5.7373 8.88672C5.88379 8.74023 5.95703 8.55713 5.95703 8.3374C5.95703 8.11768 5.88379 7.93457 5.7373 7.78809C5.62337 7.69043 5.5013 7.62126 5.37109 7.58057C5.24089 7.53988 5.10661 7.53988 4.96826 7.58057C4.82992 7.62126 4.71191 7.69043 4.61426 7.78809L0 12.5244L4.61426 17.2607C4.69564 17.3258 4.78516 17.3787 4.88281 17.4194C4.98047 17.4601 5.07812 17.4805 5.17578 17.4805C5.38737 17.4805 5.57454 17.4072 5.7373 17.2607C5.78613 17.2119 5.82682 17.1549 5.85938 17.0898C5.89193 17.0247 5.91634 16.9596 5.93262 16.8945C5.94889 16.8294 5.95703 16.7643 5.95703 16.6992C5.95703 16.6341 5.94889 16.569 5.93262 16.5039C5.91634 16.4388 5.89193 16.3737 5.85938 16.3086C5.82682 16.2435 5.78613 16.1865 5.7373 16.1377L2.85645 13.2812ZM23.4375 0H10.1562C9.7168 0 9.34652 0.150553 9.04541 0.45166C8.7443 0.752767 8.59375 1.12305 8.59375 1.5625V8.59375H10.1562V2.51465C10.1562 2.35189 10.1969 2.19727 10.2783 2.05078C10.3597 1.9043 10.4736 1.7863 10.6201 1.69678C10.7666 1.60726 10.9294 1.5625 11.1084 1.5625H22.4609C22.7214 1.5625 22.9411 1.65609 23.1201 1.84326C23.2992 2.03044 23.3887 2.25423 23.3887 2.51465L23.4131 22.4854C23.4131 22.7458 23.3236 22.9696 23.1445 23.1567C22.9655 23.3439 22.7458 23.4375 22.4854 23.4375H11.1084C10.848 23.4375 10.6242 23.3439 10.437 23.1567C10.2498 22.9696 10.1562 22.7458 10.1562 22.4854V16.3818H8.59375V23.4375C8.59375 23.877 8.7443 24.2472 9.04541 24.5483C9.34652 24.8494 9.7168 25 10.1562 25H23.4375C23.5352 25 23.6369 24.9878 23.7427 24.9634C23.8485 24.939 23.9461 24.9105 24.0356 24.8779C24.1252 24.8454 24.2147 24.8006 24.3042 24.7437C24.3937 24.6867 24.471 24.6216 24.5361 24.5483C24.6012 24.4751 24.6623 24.3978 24.7192 24.3164C24.7762 24.235 24.825 24.1455 24.8657 24.0479C24.9064 23.9502 24.939 23.8525 24.9634 23.7549C24.9878 23.6572 25 23.5514 25 23.4375V1.5625C25 0.927734 24.7152 0.463867 24.1455 0.170898C23.9176 0.0569661 23.6816 0 23.4375 0Z" fill="black"/>
</svg>
