<svg width="25" height="25" viewBox="0 0 25 25" fill="none" xmlns="http://www.w3.org/2000/svg">
<path d="M17.3126 6.46886C17.2047 6.38349 17.0811 6.32032 16.9487 6.28299C16.8163 6.24566 16.6779 6.23492 16.5413 6.25139C16.4048 6.26785 16.2728 6.31119 16.1531 6.37891C16.0334 6.44663 15.9283 6.53739 15.8438 6.64595L8.55216 16.0209L4.97924 11.6668C4.89543 11.5552 4.79007 11.4616 4.6694 11.3916C4.54873 11.3215 4.41521 11.2764 4.27678 11.259C4.13835 11.2415 3.99781 11.252 3.86353 11.2899C3.72924 11.3278 3.60393 11.3923 3.49504 11.4795C3.38616 11.5668 3.29591 11.675 3.22965 11.7978C3.1634 11.9206 3.12249 12.0555 3.10936 12.1944C3.09623 12.3333 3.11114 12.4734 3.1532 12.6065C3.19527 12.7395 3.26363 12.8628 3.35424 12.9689L7.69799 18.3647C7.79603 18.4855 7.9199 18.5829 8.06051 18.6496C8.20111 18.7163 8.35487 18.7506 8.51049 18.7501C8.67568 18.7575 8.84024 18.7254 8.99059 18.6566C9.14093 18.5878 9.27272 18.4841 9.37507 18.3543L17.5313 7.93761C17.6145 7.82722 17.6748 7.70139 17.7089 7.56744C17.7429 7.4335 17.75 7.29411 17.7296 7.15742C17.7092 7.02072 17.6619 6.88944 17.5903 6.77123C17.5187 6.65301 17.4243 6.55023 17.3126 6.46886V6.46886ZM22.5209 6.46886C22.4131 6.38349 22.2894 6.32032 22.157 6.28299C22.0246 6.24566 21.8862 6.23492 21.7496 6.25139C21.6131 6.26785 21.4811 6.31119 21.3614 6.37891C21.2417 6.44663 21.1366 6.53739 21.0522 6.64595L13.7605 16.0209L13.1251 15.2397L11.8126 16.9272L12.9584 18.3543C13.0564 18.4751 13.1803 18.5725 13.3209 18.6392C13.4615 18.7059 13.6153 18.7402 13.7709 18.7397C13.9274 18.739 14.0817 18.703 14.2223 18.6345C14.363 18.566 14.4864 18.4666 14.5834 18.3439L22.7397 7.9272C22.8212 7.81713 22.8802 7.69206 22.9133 7.55916C22.9465 7.42625 22.9531 7.28812 22.9328 7.15266C22.9124 7.0172 22.8656 6.88708 22.7949 6.76975C22.7243 6.65241 22.6311 6.55017 22.5209 6.46886V6.46886Z" fill="black"/>
<path d="M9.07306 13.6044L10.4168 11.9169L10.2085 11.6669C10.1262 11.5529 10.0218 11.4568 9.90143 11.3843C9.78108 11.3118 9.64729 11.2644 9.50813 11.2449C9.36897 11.2254 9.22731 11.2343 9.09167 11.271C8.95604 11.3078 8.82923 11.3715 8.71889 11.4585C8.61188 11.5445 8.52292 11.6508 8.45711 11.7712C8.39131 11.8917 8.34995 12.0239 8.33543 12.1604C8.32091 12.2969 8.33351 12.4349 8.3725 12.5665C8.4115 12.6981 8.47611 12.8207 8.56264 12.9273L9.07306 13.6044Z" fill="black"/>
</svg>
