<svg width="34" height="40" viewBox="0 0 27 33" fill="none" xmlns="http://www.w3.org/2000/svg">
<path d="M21.5521 14.8028L14.648 7.89874C14.3984 7.66204 14.0656 7.5334 13.7217 7.54075C13.3778 7.54811 13.0507 7.69087 12.8115 7.93802L0.937992 19.8115C0.690844 20.0507 0.548081 20.3778 0.540726 20.7217C0.53337 21.0656 0.662015 21.3985 0.898709 21.648L10.8866 31.6359C11.1362 31.8726 11.469 32.0013 11.8129 31.9939C12.1568 31.9865 12.4839 31.8438 12.7231 31.5966L21.6454 22.6743L21.5521 14.8028ZM16.6957 18.7852L20.2116 15.2693L20.2803 22.3699L16.6957 18.7852Z" fill="#0264F5"/>
<path d="M22.1183 8.75768L15.2142 1.85357C14.9646 1.61688 14.6317 1.48823 14.2878 1.49559C13.944 1.50294 13.6169 1.64571 13.3777 1.89286L1.50415 13.7664C1.25701 14.0056 1.11424 14.3327 1.10689 14.6765C1.09953 15.0204 1.22818 15.3533 1.46487 15.6029L11.4528 25.5908C11.7023 25.8274 12.0352 25.9561 12.3791 25.9487C12.723 25.9414 13.0501 25.7986 13.2893 25.5515L22.2116 16.6292L22.1183 8.75768ZM17.2618 12.7401L20.7777 9.22418L20.8465 16.3247L17.2618 12.7401Z" fill="#0052CC"/>
</svg>
