<svg width="25" height="25" viewBox="0 0 25 25" fill="none" xmlns="http://www.w3.org/2000/svg">
<path d="M23.2846 13.0277L18.4721 10.8124V4.46518C18.4699 4.33202 18.4295 4.2023 18.3556 4.09148C18.2817 3.98067 18.1775 3.89343 18.0555 3.84018L12.8471 1.44435C12.7557 1.40204 12.6562 1.38013 12.5555 1.38013C12.4547 1.38013 12.3552 1.40204 12.2638 1.44435L7.05548 3.84018C6.93493 3.89597 6.83292 3.98515 6.76153 4.09716C6.69014 4.20917 6.65237 4.3393 6.6527 4.47212V10.8193L1.86103 13.0277C1.74049 13.0835 1.63848 13.1727 1.56709 13.2847C1.4957 13.3967 1.45793 13.5268 1.45825 13.6596V20.4513C1.45793 20.5841 1.4957 20.7142 1.56709 20.8263C1.63848 20.9383 1.74049 21.0274 1.86103 21.0832L7.06937 23.4791C7.16078 23.5214 7.2603 23.5433 7.36103 23.5433C7.46176 23.5433 7.56128 23.5214 7.6527 23.4791L12.5694 21.2152L17.486 23.4791C17.5774 23.5214 17.677 23.5433 17.7777 23.5433C17.8784 23.5433 17.978 23.5214 18.0694 23.4791L23.2777 21.0832C23.3982 21.0274 23.5003 20.9383 23.5716 20.8263C23.643 20.7142 23.6808 20.5841 23.6805 20.4513V13.6596C23.6814 13.5276 23.6447 13.3979 23.5746 13.286C23.5045 13.1741 23.4039 13.0845 23.2846 13.0277V13.0277ZM17.7846 15.2777L14.236 13.6596L17.7846 12.0277L21.3333 13.6596L17.7846 15.2777ZM17.0902 10.8055L12.618 12.8888V7.54851C12.7017 7.54481 12.784 7.52599 12.861 7.49296L17.0833 5.55546V10.8193L17.0902 10.8055ZM12.5694 2.83324L16.118 4.46518L12.5694 6.09712L9.0277 4.46518L12.5694 2.83324ZM7.36103 12.0207L10.9096 13.6527L7.36103 15.2777L3.81242 13.6596L7.36103 12.0207ZM11.8749 19.9999L7.36103 22.0832V16.743C7.45795 16.7372 7.55257 16.7112 7.63881 16.6666L11.861 14.7221L11.8749 19.9999ZM22.2916 19.9999L17.8055 22.0832V16.743C17.8929 16.7335 17.9777 16.7076 18.0555 16.6666L22.2777 14.7221L22.2916 19.9999Z" fill="black"/>
</svg>
