<svg width="25" height="25" viewBox="0 0 25 25" fill="none" xmlns="http://www.w3.org/2000/svg">
<path d="M23.4375 6.25H20.2344C19.8437 4.45313 18.2813 3.125 16.4062 3.125C14.5312 3.125 12.9688 4.45313 12.5781 6.25H1.5625V7.8125H12.5781C12.9688 9.60937 14.5312 10.9375 16.4062 10.9375C18.2813 10.9375 19.8437 9.60937 20.2344 7.8125H23.4375V6.25ZM16.4062 9.375C15.0781 9.375 14.0625 8.35938 14.0625 7.03125C14.0625 5.70312 15.0781 4.6875 16.4062 4.6875C17.7344 4.6875 18.75 5.70312 18.75 7.03125C18.75 8.35938 17.7344 9.375 16.4062 9.375Z" fill="black"/>
<path d="M1.5625 18.75H4.76562C5.15625 20.5469 6.71875 21.875 8.59375 21.875C10.4688 21.875 12.0312 20.5469 12.4219 18.75H23.4375V17.1875H12.4219C12.0312 15.3906 10.4688 14.0625 8.59375 14.0625C6.71875 14.0625 5.15625 15.3906 4.76562 17.1875H1.5625V18.75ZM8.59375 15.625C9.92188 15.625 10.9375 16.6406 10.9375 17.9688C10.9375 19.2969 9.92188 20.3125 8.59375 20.3125C7.26562 20.3125 6.25 19.2969 6.25 17.9688C6.25 16.6406 7.26562 15.625 8.59375 15.625Z" fill="black"/>
</svg>
