<svg width="25" height="25" viewBox="0 0 25 25" fill="none" xmlns="http://www.w3.org/2000/svg">
<path d="M2.5 5C2.5 4.66848 2.6317 4.35054 2.86612 4.11612C3.10054 3.8817 3.41848 3.75 3.75 3.75H6.25C6.58152 3.75 6.89946 3.8817 7.13388 4.11612C7.3683 4.35054 7.5 4.66848 7.5 5V20C7.5 20.3315 7.3683 20.6495 7.13388 20.8839C6.89946 21.1183 6.58152 21.25 6.25 21.25H3.75C3.41848 21.25 3.10054 21.1183 2.86612 20.8839C2.6317 20.6495 2.5 20.3315 2.5 20V5Z" fill="black"/>
<path d="M10 5C10 4.66848 10.1317 4.35054 10.3661 4.11612C10.6005 3.8817 10.9185 3.75 11.25 3.75H13.75C14.0815 3.75 14.3995 3.8817 14.6339 4.11612C14.8683 4.35054 15 4.66848 15 5V20C15 20.3315 14.8683 20.6495 14.6339 20.8839C14.3995 21.1183 14.0815 21.25 13.75 21.25H11.25C10.9185 21.25 10.6005 21.1183 10.3661 20.8839C10.1317 20.6495 10 20.3315 10 20V5Z" fill="black"/>
<path d="M18.75 3.75C18.4185 3.75 18.1005 3.8817 17.8661 4.11612C17.6317 4.35054 17.5 4.66848 17.5 5V20C17.5 20.3315 17.6317 20.6495 17.8661 20.8839C18.1005 21.1183 18.4185 21.25 18.75 21.25H21.25C21.5815 21.25 21.8995 21.1183 22.1339 20.8839C22.3683 20.6495 22.5 20.3315 22.5 20V5C22.5 4.66848 22.3683 4.35054 22.1339 4.11612C21.8995 3.8817 21.5815 3.75 21.25 3.75H18.75Z" fill="black"/>
</svg>
