<svg width="25" height="25" viewBox="0 0 25 25" fill="none" xmlns="http://www.w3.org/2000/svg">
<path fill-rule="evenodd" clip-rule="evenodd" d="M3.125 0C2.2962 0 1.50134 0.32924 0.915291 0.915291C0.32924 1.50134 0 2.2962 0 3.125L0 21.875C0 22.7038 0.32924 23.4987 0.915291 24.0847C1.50134 24.6708 2.2962 25 3.125 25H21.875C22.7038 25 23.4987 24.6708 24.0847 24.0847C24.6708 23.4987 25 22.7038 25 21.875V3.125C25 2.2962 24.6708 1.50134 24.0847 0.915291C23.4987 0.32924 22.7038 0 21.875 0L3.125 0ZM8.36563 13.0531C8.29299 13.1258 8.20675 13.1834 8.11185 13.2227C8.01694 13.262 7.91522 13.2822 7.8125 13.2822C7.70978 13.2822 7.60806 13.262 7.51315 13.2227C7.41825 13.1834 7.33201 13.1258 7.25937 13.0531C7.18674 12.9805 7.12912 12.8943 7.08981 12.7993C7.0505 12.7044 7.03026 12.6027 7.03026 12.5C7.03026 12.3973 7.0505 12.2956 7.08981 12.2007C7.12912 12.1057 7.18674 12.0195 7.25937 11.9469L11.9469 7.25937C12.0194 7.18662 12.1057 7.1289 12.2006 7.08951C12.2955 7.05013 12.3972 7.02985 12.5 7.02985C12.6028 7.02985 12.7045 7.05013 12.7994 7.08951C12.8943 7.1289 12.9806 7.18662 13.0531 7.25937L17.7406 11.9469C17.8873 12.0936 17.9697 12.2925 17.9697 12.5C17.9697 12.7075 17.8873 12.9064 17.7406 13.0531C17.5939 13.1998 17.395 13.2822 17.1875 13.2822C16.98 13.2822 16.7811 13.1998 16.6344 13.0531L13.2812 9.69844V17.1875C13.2812 17.3947 13.1989 17.5934 13.0524 17.7399C12.9059 17.8864 12.7072 17.9688 12.5 17.9688C12.2928 17.9688 12.0941 17.8864 11.9476 17.7399C11.8011 17.5934 11.7188 17.3947 11.7188 17.1875V9.69844L8.36563 13.0531Z" fill="#0052CC"/>
</svg>
